<svg width="40" height="34" viewBox="0 0 40 34" fill="none" xmlns="http://www.w3.org/2000/svg">
<g clip-path="url(#clip0_2350_5495)" filter="url(#filter0_d_2350_5495)">
<path d="M30 29H14C8.47715 29 4 24.5228 4 19C4 13.4772 8.47715 9 14 9H34H36V23C36 26.3137 33.3137 29 30 29Z" fill="#FBFBFB"/>
<rect width="3" height="3" transform="matrix(-1 0 0 1 36 6)" fill="#FBFBFB"/>
<path d="M36 6C36 7.65685 34.6569 9 33 9V3C34.6569 3 36 4.34315 36 6Z" fill="#FBFBFB"/>
<path d="M36 6C36 7.65685 34.6569 9 33 9V3C34.6569 3 36 4.34315 36 6Z" fill="#C1C1C1"/>
<path d="M20.0005 12.5C23.5885 12.5002 25.9938 15.1952 26.5562 18.5605C26.6091 18.8774 26.4746 19.182 26.2349 19.3633C26.2568 19.623 26.269 19.8862 26.269 20.1523C26.269 20.6293 26.2281 21.096 26.1519 21.5479C26.4734 21.9627 26.6665 22.4823 26.6665 23.0479C26.6663 24.4022 25.5687 25.4999 24.2144 25.5H22.9614C22.7569 25.5 22.5905 25.3344 22.5903 25.1299V20.9658C22.5903 20.7612 22.7568 20.5947 22.9614 20.5947H24.2144C24.6437 20.5948 25.047 20.7056 25.3979 20.8994C25.4221 20.6545 25.436 20.4051 25.436 20.1523C25.436 19.9196 25.4265 19.6903 25.4087 19.4648C25.1557 19.3568 24.9613 19.1263 24.9126 18.835C24.4499 16.0661 22.5806 14.1663 20.0005 14.166C17.4202 14.166 15.5512 16.066 15.0884 18.835C15.0397 19.1266 14.8439 19.3569 14.5903 19.4648C14.5725 19.6902 14.564 19.9196 14.564 20.1523C14.564 20.4048 14.578 20.6538 14.6021 20.8984C14.9529 20.7047 15.3565 20.5948 15.7856 20.5947H16.8999C17.1813 20.5947 17.4097 20.8231 17.4097 21.1045V24.9902C17.4097 25.2716 17.1813 25.5 16.8999 25.5H15.7856C14.4314 25.4998 13.3337 24.4021 13.3335 23.0479C13.3335 22.4826 13.5259 21.9626 13.8472 21.5479C13.7707 21.096 13.73 20.6292 13.73 20.1523C13.73 19.8863 13.7422 19.623 13.7642 19.3633C13.5245 19.182 13.3909 18.8773 13.4438 18.5605C14.0062 15.1951 16.4123 12.5 20.0005 12.5Z" fill="#FBFBFB"/>
</g>
<path d="M14.5767 18.941H15.3237V20.174H14.5767V18.941ZM14.9277 15.935C15.3177 15.935 15.6627 16.004 15.9627 16.142C16.2687 16.274 16.5057 16.46 16.6737 16.7C16.8477 16.94 16.9347 17.219 16.9347 17.537C16.9347 17.855 16.8477 18.137 16.6737 18.383C16.5057 18.623 16.2687 18.812 15.9627 18.95C15.6627 19.082 15.3177 19.148 14.9277 19.148C14.5377 19.148 14.1897 19.082 13.8837 18.95C13.5837 18.812 13.3467 18.623 13.1727 18.383C13.0047 18.137 12.9207 17.855 12.9207 17.537C12.9207 17.219 13.0047 16.94 13.1727 16.7C13.3467 16.46 13.5837 16.274 13.8837 16.142C14.1897 16.004 14.5377 15.935 14.9277 15.935ZM14.9277 16.511C14.6757 16.511 14.4507 16.553 14.2527 16.637C14.0547 16.721 13.8987 16.841 13.7847 16.997C13.6767 17.153 13.6227 17.333 13.6227 17.537C13.6227 17.741 13.6767 17.921 13.7847 18.077C13.8987 18.233 14.0547 18.356 14.2527 18.446C14.4507 18.53 14.6757 18.572 14.9277 18.572C15.1857 18.572 15.4107 18.53 15.6027 18.446C15.8007 18.356 15.9537 18.233 16.0617 18.077C16.1757 17.921 16.2327 17.741 16.2327 17.537C16.2327 17.333 16.1757 17.153 16.0617 16.997C15.9537 16.841 15.8007 16.721 15.6027 16.637C15.4107 16.553 15.1857 16.511 14.9277 16.511ZM18.0327 15.566H18.7797V21.794H18.0327V15.566ZM18.4647 18.311H19.9677V18.941H18.4647V18.311ZM13.6317 22.901H19.0677V23.513H13.6317V22.901ZM13.6317 21.263H14.3787V23.171H13.6317V21.263ZM12.5517 20.588L12.4617 19.967C12.9357 19.967 13.4577 19.964 14.0277 19.958C14.6037 19.946 15.1917 19.922 15.7917 19.886C16.3917 19.844 16.9677 19.781 17.5197 19.697L17.5737 20.246C17.0097 20.348 16.4277 20.423 15.8277 20.471C15.2337 20.519 14.6547 20.552 14.0907 20.57C13.5327 20.582 13.0197 20.588 12.5517 20.588ZM20.15 19.616H27.503V20.219H20.15V19.616ZM23.453 18.221H24.2V19.859H23.453V18.221ZM20.969 21.011H26.603V23.765H25.865V21.614H20.969V21.011ZM21.077 18.032H26.666V18.644H21.077V18.032ZM21.077 15.89H26.594V16.493H21.824V18.347H21.077V15.89Z" fill="#8B8B8B"/>
<defs>
<filter id="filter0_d_2350_5495" x="0" y="0" width="40" height="34" filterUnits="userSpaceOnUse" color-interpolation-filters="sRGB">
<feFlood flood-opacity="0" result="BackgroundImageFix"/>
<feColorMatrix in="SourceAlpha" type="matrix" values="0 0 0 0 0 0 0 0 0 0 0 0 0 0 0 0 0 0 127 0" result="hardAlpha"/>
<feOffset dy="1"/>
<feGaussianBlur stdDeviation="2"/>
<feColorMatrix type="matrix" values="0 0 0 0 0 0 0 0 0 0 0 0 0 0 0 0 0 0 0.2 0"/>
<feBlend mode="normal" in2="BackgroundImageFix" result="effect1_dropShadow_2350_5495"/>
<feBlend mode="normal" in="SourceGraphic" in2="effect1_dropShadow_2350_5495" result="shape"/>
</filter>
<clipPath id="clip0_2350_5495">
<rect width="32" height="26" fill="white" transform="translate(4 3)"/>
</clipPath>
</defs>
</svg>
