<svg width="32" height="26" viewBox="0 0 32 26" fill="none" xmlns="http://www.w3.org/2000/svg">
<path d="M26 26H10C4.47715 26 0 21.5228 0 16C0 10.4772 4.47715 6 10 6H30H32V20C32 23.3137 29.3137 26 26 26Z" fill="#A451F7"/>
<rect width="3" height="3" transform="matrix(-1 0 0 1 32 3)" fill="#A451F7"/>
<path d="M32 3C32 4.65685 30.6569 6 29 6V0C30.6569 0 32 1.34315 32 3Z" fill="#A451F7"/>
<path d="M32 3C32 4.65685 30.6569 6 29 6V0C30.6569 0 32 1.34315 32 3Z" fill="#C1C1C1"/>
<path d="M16.0005 9.5C19.5884 9.50032 21.9939 12.1952 22.5562 15.5605C22.609 15.8772 22.4743 16.181 22.2349 16.3623C22.2569 16.6223 22.27 16.8859 22.27 17.1523C22.27 17.6294 22.2281 18.0959 22.1519 18.5479C22.4734 18.9627 22.6665 19.4823 22.6665 20.0479C22.6663 21.4022 21.5687 22.4999 20.2144 22.5H18.9614C18.7569 22.5 18.5905 22.3344 18.5903 22.1299V17.9658C18.5903 17.7612 18.7568 17.5947 18.9614 17.5947H20.2144C20.6437 17.5948 21.047 17.7056 21.3979 17.8994C21.4221 17.6544 21.437 17.4052 21.437 17.1523C21.437 16.9192 21.4275 16.6896 21.4097 16.4639C21.1563 16.356 20.9613 16.1266 20.9126 15.835C20.4499 13.066 18.5806 11.1663 16.0005 11.166C13.4201 11.166 11.5511 13.0659 11.0884 15.835C11.0397 16.1264 10.8437 16.3559 10.5903 16.4639C10.5725 16.6895 10.5649 16.9193 10.5649 17.1523C10.5649 17.4049 10.578 17.6537 10.6021 17.8984C10.9529 17.7047 11.3565 17.5948 11.7856 17.5947H12.8999C13.1813 17.5947 13.4097 17.8231 13.4097 18.1045V21.9902C13.4097 22.2716 13.1813 22.5 12.8999 22.5H11.7856C10.4314 22.4998 9.33371 21.4021 9.3335 20.0479C9.3335 19.4821 9.52638 18.9618 9.84814 18.5469C9.77172 18.0952 9.73096 17.629 9.73096 17.1523C9.73097 16.8863 9.7422 16.623 9.76416 16.3633C9.52439 16.182 9.39093 15.8774 9.44385 15.5605C10.0061 12.195 12.4122 9.5 16.0005 9.5Z" fill="#FBFBFB"/>
</svg>
