<svg width="24" height="24" viewBox="0 0 24 24" fill="none" xmlns="http://www.w3.org/2000/svg">
<path d="M18.0891 11.5979C17.92 11.9936 17.5086 12.2198 17.093 12.1456L16.0473 11.9589C14.6163 11.7033 13.5322 10.4941 13.4057 9.0123L13.2582 7.28607C13.2357 7.02423 12.874 6.99291 12.8089 7.24716L12.2376 9.48517C11.9203 10.7281 10.924 11.6672 9.68813 11.888L7.55263 12.2693C7.30011 12.3146 7.30011 12.6854 7.55263 12.7307L9.28982 13.0411C10.7208 13.2967 11.8048 14.5059 11.9314 15.9877L12.0789 17.7139C12.1014 17.9758 12.4631 18.0071 12.5282 17.7528L13.0995 15.5148C13.4168 14.2719 14.4131 13.3328 15.6489 13.112L16.983 12.8736C17.4359 12.7926 17.8772 13.0681 18.0143 13.5175L19.8071 19.3914C19.8992 19.6933 19.679 20 19.3702 20H4.91554C4.3987 20 3.98431 19.5622 4.00046 19.0332L4.401 5.90822C4.41645 5.4021 4.82159 5 5.31609 5H20.2084C20.5385 5 20.7601 5.34695 20.6278 5.65665L18.0891 11.5979Z" fill="#00C4BD"/>
</svg>
